<svg width="1280" height="640" viewBox="0 0 1280 640" fill="none" xmlns="http://www.w3.org/2000/svg">
<g clip-path="url(#clip0_306_4312)">
<path d="M-183.124 287.05C-46.9166 238.67 104.668 245.393 246.859 246.033C420.557 246.814 658.077 310.207 830.5 279C947.232 257.873 977.134 205.274 956.01 160.428C940.5 127.5 908.24 127.807 881.5 127.5C832.113 126.932 744.821 172.56 708.394 199.715C621.547 264.456 537.657 330.496 441.09 380.694C391.912 406.259 339.692 429.662 286.361 445.186C247.652 456.453 202.516 463.197 166 437.5C139 418.5 134.641 407.696 139 380.694C144.005 349.692 181.56 334.599 206.221 337.153C282.908 345.099 356.754 370.024 431.498 387.51C534.67 411.646 640.73 418.99 746.255 425.119C949.37 436.915 1156.91 440.569 1357.6 402.402C1413.05 391.855 1476.54 382.986 1526.21 354.191C1543.77 344.007 1556.16 330.404 1563.82 312.039" stroke="#0066FF" stroke-width="4" stroke-linecap="round" stroke-linejoin="round" stroke-dasharray="37 28"/>
<g filter="url(#filter0_d_306_4312)">
<path d="M461.489 327.565V424.05L473.932 424.098V378.153H503.845V365.996H473.885V339.674H512.89V327.565H461.489ZM535.193 347.188C537.351 347.188 539.42 346.33 540.946 344.805C542.472 343.279 543.329 341.209 543.329 339.052C543.329 336.894 542.472 334.824 540.946 333.298C539.42 331.773 537.351 330.915 535.193 330.915C533.035 330.915 530.965 331.773 529.44 333.298C527.914 334.824 527.057 336.894 527.057 339.052C527.057 341.209 527.914 343.279 529.44 344.805C530.965 346.33 533.035 347.188 535.193 347.188V347.188ZM528.923 359.296V424.098H541.367V359.296H528.923V359.296Z" fill="white"/>
<path fill-rule="evenodd" clip-rule="evenodd" d="M587.359 357.43C570.895 357.43 559.409 371.357 559.409 387.916C559.409 404.475 570.895 418.403 587.359 418.403C594.921 418.403 601.143 415.531 605.689 410.745V419.36C605.721 421.934 605.242 424.489 604.28 426.876C603.319 429.264 601.893 431.438 600.086 433.271C598.279 435.105 596.127 436.562 593.754 437.559C591.38 438.555 588.833 439.072 586.258 439.078C582.286 439.078 578.362 437.546 575.251 435.345L569.029 446.113C573.84 449.223 579.401 450.977 585.126 451.189C590.85 451.402 596.526 450.065 601.554 447.321C606.582 444.576 610.777 440.526 613.695 435.596C616.613 430.666 618.146 425.04 618.133 419.312V359.344H605.689V365.135C601.143 360.349 594.921 357.477 587.359 357.477V357.43ZM571.805 387.916C571.805 377.626 579.654 369.538 588.747 369.538C597.84 369.538 605.641 377.674 605.641 387.916C605.641 398.206 597.793 406.246 588.747 406.246C579.654 406.246 571.805 398.206 571.805 387.916V387.916Z" fill="white"/>
<path d="M662.834 369.538C659.276 369.601 655.884 371.062 653.395 373.606C650.905 376.149 649.516 379.571 649.529 383.13V424.098H637.086V359.296H649.529V365.231C651.391 362.763 653.809 360.771 656.587 359.415C659.365 358.059 662.424 357.379 665.515 357.43C674.225 357.43 680.925 361.737 684.754 368.342C686.89 365.031 689.814 362.301 693.263 360.397C696.712 358.492 700.58 357.473 704.52 357.43C718.639 357.43 727.493 368.82 727.493 382.939V424.098H715.145V383.082C715.158 379.523 713.769 376.101 711.28 373.558C708.79 371.014 705.399 369.553 701.84 369.49C698.281 369.553 694.89 371.014 692.4 373.558C689.91 376.101 688.522 379.523 688.535 383.082V424.05H676.091V383.082C676.105 379.531 674.723 376.117 672.243 373.574C669.764 371.032 666.385 369.565 662.834 369.49V369.538Z" fill="white"/>
<path fill-rule="evenodd" clip-rule="evenodd" d="M793.682 366.666C790.856 363.72 787.459 361.381 783.698 359.793C779.938 358.205 775.892 357.4 771.81 357.43C753.336 357.43 740.223 373.032 740.223 391.697C740.223 410.362 753.336 425.964 771.81 425.964C775.891 425.985 779.934 425.177 783.694 423.589C787.453 422.002 790.851 419.667 793.682 416.727V424.098H806.078V359.296H793.634V366.666H793.682ZM752.619 391.697C752.619 379.349 762.095 369.538 773.15 369.538C784.158 369.538 793.682 379.349 793.682 391.697C793.682 404.045 784.206 413.808 773.15 413.808C762.143 413.808 752.619 404.045 752.619 391.697V391.697Z" fill="white"/>
</g>
<g filter="url(#filter1_d_306_4312)">
<rect x="784.445" y="359.844" width="36.3737" height="10.1038" rx="5.0519" fill="#0066FF"/>
<rect x="807.683" y="346.709" width="36.3737" height="10.1038" rx="5.0519" transform="rotate(90 807.683 346.709)" fill="#0066FF"/>
</g>
<g clip-path="url(#clip1_306_4312)">
<path d="M597.261 296.457C597.261 290.651 599.567 285.082 603.673 280.977C607.778 276.872 613.346 274.565 619.152 274.565H641.044V296.457C641.044 302.262 638.737 307.831 634.632 311.936C630.526 316.041 624.958 318.348 619.152 318.348C613.346 318.348 607.778 316.041 603.673 311.936C599.567 307.831 597.261 302.262 597.261 296.457V296.457Z" fill="#0ACF83"/>
<path d="M641.044 187V230.783H662.935C668.741 230.783 674.309 228.476 678.414 224.371C682.52 220.265 684.826 214.697 684.826 208.891C684.826 203.085 682.52 197.517 678.414 193.412C674.309 189.306 668.741 187 662.935 187H641.044Z" fill="#FF7262"/>
<path d="M597.261 208.891C597.261 214.697 599.567 220.265 603.673 224.371C607.778 228.476 613.346 230.783 619.152 230.783H641.044V187H619.152C613.346 187 607.778 189.306 603.673 193.412C599.567 197.517 597.261 203.085 597.261 208.891V208.891Z" fill="#F24E1E"/>
<path d="M597.261 252.674C597.261 258.48 599.567 264.048 603.673 268.153C607.778 272.259 613.346 274.565 619.152 274.565H641.044V230.783H619.152C613.346 230.783 607.778 233.089 603.673 237.194C599.567 241.3 597.261 246.868 597.261 252.674V252.674Z" fill="#A259FF"/>
<path fill-rule="evenodd" clip-rule="evenodd" d="M641.043 252.674C641.043 246.868 643.35 241.3 647.455 237.194C651.561 233.089 657.129 230.783 662.935 230.783C668.741 230.783 674.309 233.089 678.414 237.194C682.52 241.3 684.826 246.868 684.826 252.674C684.826 258.48 682.52 264.048 678.414 268.153C674.309 272.259 668.741 274.565 662.935 274.565C657.129 274.565 651.561 272.259 647.455 268.153C643.35 264.048 641.043 258.48 641.043 252.674ZM650.261 252.674C650.261 250.73 651.837 249.153 653.781 249.153H659.414V243.521C659.414 241.576 660.991 240 662.935 240C664.879 240 666.455 241.576 666.455 243.521V249.153H672.088C674.032 249.153 675.609 250.73 675.609 252.674C675.609 254.618 674.032 256.194 672.088 256.194H666.455V261.827C666.455 263.772 664.879 265.348 662.935 265.348C660.991 265.348 659.414 263.772 659.414 261.827V256.194H653.781C651.837 256.194 650.261 254.618 650.261 252.674Z" fill="#1ABCFE"/>
</g>
<path d="M95.7224 573V536.017H100.922L113.073 569.127L125.224 536.017H130.424V573H127.771V538.67H126.975L114.771 571.833H111.375L99.1714 538.67H98.3754V573H95.7224ZM159.185 573.478C156.284 573.478 154.038 573.018 152.446 572.098C150.854 571.178 149.758 569.675 149.156 567.588C148.555 565.501 148.254 562.742 148.254 559.31C148.254 556.091 148.608 553.509 149.315 551.563C150.023 549.618 151.173 548.203 152.764 547.319C154.392 546.434 156.532 545.992 159.185 545.992C161.873 545.992 164.013 546.434 165.605 547.319C167.232 548.203 168.4 549.618 169.107 551.563C169.815 553.509 170.168 556.091 170.168 559.31C170.168 562.742 169.868 565.501 169.266 567.588C168.665 569.675 167.568 571.178 165.976 572.098C164.42 573.018 162.156 573.478 159.185 573.478ZM159.185 571.196C161.626 571.196 163.43 570.807 164.597 570.029C165.8 569.25 166.578 567.995 166.932 566.261C167.285 564.493 167.462 562.176 167.462 559.31C167.462 556.516 167.215 554.323 166.719 552.731C166.224 551.104 165.375 549.954 164.172 549.282C163.005 548.61 161.343 548.274 159.185 548.274C157.062 548.274 155.4 548.61 154.197 549.282C152.994 549.954 152.145 551.104 151.65 552.731C151.155 554.323 150.907 556.516 150.907 559.31C150.907 562.176 151.084 564.493 151.438 566.261C151.827 567.995 152.605 569.25 153.773 570.029C154.94 570.807 156.744 571.196 159.185 571.196ZM195.443 573.478C194.63 573.478 193.799 573.407 192.95 573.265C192.101 573.124 191.269 572.823 190.456 572.363C189.678 571.868 188.97 571.143 188.333 570.188C187.697 569.233 187.184 567.942 186.795 566.314C186.405 564.652 186.211 562.582 186.211 560.106C186.211 557.029 186.547 554.446 187.219 552.359C187.926 550.237 189.094 548.645 190.721 547.584C192.348 546.523 194.577 545.992 197.407 545.992C198.574 545.992 199.83 546.081 201.174 546.257C202.518 546.399 203.526 546.523 204.198 546.629V534.478H206.798V573H204.252V570.931C203.65 571.284 202.854 571.673 201.864 572.098C200.909 572.487 199.865 572.805 198.733 573.053C197.637 573.336 196.54 573.478 195.443 573.478ZM195.603 571.143C196.664 571.143 197.725 571.019 198.786 570.771C199.883 570.488 200.909 570.152 201.864 569.763C202.819 569.374 203.597 569.003 204.198 568.649V548.91C203.774 548.84 203.155 548.751 202.341 548.645C201.528 548.539 200.679 548.451 199.794 548.38C198.91 548.309 198.132 548.274 197.46 548.274C195.16 548.274 193.392 548.734 192.154 549.653C190.951 550.573 190.102 551.917 189.607 553.686C189.147 555.419 188.917 557.559 188.917 560.106C188.917 562.618 189.112 564.616 189.501 566.102C189.925 567.552 190.456 568.649 191.092 569.392C191.765 570.099 192.49 570.577 193.268 570.825C194.046 571.037 194.824 571.143 195.603 571.143ZM233.092 573.478C232.278 573.478 231.447 573.407 230.598 573.265C229.749 573.124 228.918 572.823 228.104 572.363C227.326 571.868 226.618 571.143 225.982 570.188C225.345 569.233 224.832 567.942 224.443 566.314C224.054 564.652 223.859 562.582 223.859 560.106C223.859 557.029 224.195 554.446 224.867 552.359C225.575 550.237 226.742 548.645 228.369 547.584C229.996 546.523 232.225 545.992 235.055 545.992C236.222 545.992 237.478 546.081 238.822 546.257C240.166 546.399 241.175 546.523 241.847 546.629V534.478H244.447V573H241.9V570.931C241.298 571.284 240.503 571.673 239.512 572.098C238.557 572.487 237.513 572.805 236.381 573.053C235.285 573.336 234.188 573.478 233.092 573.478ZM233.251 571.143C234.312 571.143 235.373 571.019 236.435 570.771C237.531 570.488 238.557 570.152 239.512 569.763C240.467 569.374 241.245 569.003 241.847 568.649V548.91C241.422 548.84 240.803 548.751 239.99 548.645C239.176 548.539 238.327 548.451 237.443 548.38C236.558 548.309 235.78 548.274 235.108 548.274C232.809 548.274 231.04 548.734 229.802 549.653C228.599 550.573 227.75 551.917 227.255 553.686C226.795 555.419 226.565 557.559 226.565 560.106C226.565 562.618 226.76 564.616 227.149 566.102C227.573 567.552 228.104 568.649 228.741 569.392C229.413 570.099 230.138 570.577 230.916 570.825C231.694 571.037 232.473 571.143 233.251 571.143ZM262.675 573V546.47H265.222V573H262.675ZM262.675 539.359V535.857H265.222V539.359H262.675ZM283.482 573V546.47H286.029V548.486C286.701 548.132 287.515 547.761 288.47 547.372C289.461 546.983 290.522 546.664 291.654 546.417C292.786 546.134 293.882 545.992 294.944 545.992C297.349 545.992 299.188 546.399 300.462 547.212C301.735 547.991 302.602 549.335 303.062 551.245C303.522 553.155 303.752 555.773 303.752 559.098V573H301.152V559.257C301.152 556.463 300.992 554.27 300.674 552.678C300.391 551.086 299.79 549.972 298.87 549.335C297.986 548.663 296.606 548.327 294.731 548.327C293.67 548.327 292.573 548.451 291.442 548.698C290.345 548.946 289.319 549.264 288.364 549.653C287.444 550.007 286.666 550.361 286.029 550.714V573H283.482ZM331.358 585.628C328.457 585.628 326.228 585.363 324.672 584.833C323.116 584.337 322.037 583.471 321.435 582.233C320.834 581.03 320.533 579.403 320.533 577.351C320.533 576.219 320.71 575.282 321.064 574.539C321.418 573.796 321.913 573.124 322.55 572.522C323.222 571.921 324.018 571.284 324.937 570.612C324.513 570.294 324.194 569.834 323.982 569.233C323.77 568.596 323.664 567.871 323.664 567.057C323.664 566.739 323.841 566.155 324.194 565.306C324.584 564.422 324.973 563.626 325.362 562.918C324.548 562.6 323.805 562.14 323.133 561.539C322.497 560.938 321.966 560.106 321.541 559.045C321.117 557.948 320.905 556.551 320.905 554.853C320.905 551.67 321.736 549.388 323.399 548.008C325.097 546.629 327.378 545.939 330.243 545.939C331.269 545.939 332.313 546.01 333.374 546.151C334.435 546.293 335.266 546.452 335.868 546.629L343.402 546.47V548.857L337.937 548.804C338.539 549.37 339.016 550.113 339.37 551.033C339.759 551.917 339.954 553.191 339.954 554.853C339.954 557.082 339.582 558.833 338.839 560.106C338.096 561.38 337 562.299 335.549 562.865C334.099 563.396 332.277 563.661 330.084 563.661C329.837 563.661 329.377 563.644 328.705 563.608C328.068 563.538 327.59 563.484 327.272 563.449C327.06 564.05 326.812 564.723 326.529 565.465C326.282 566.208 326.158 566.703 326.158 566.951C326.158 567.729 326.282 568.313 326.529 568.702C326.777 569.091 327.396 569.356 328.386 569.498C329.377 569.604 330.969 569.657 333.162 569.657C335.461 569.657 337.318 569.852 338.733 570.241C340.148 570.595 341.174 571.32 341.811 572.416C342.483 573.513 342.819 575.158 342.819 577.351C342.819 580.252 341.881 582.356 340.007 583.665C338.132 584.974 335.249 585.628 331.358 585.628ZM331.411 583.347C334.488 583.347 336.717 582.869 338.096 581.914C339.476 580.994 340.166 579.491 340.166 577.404C340.166 575.777 339.918 574.574 339.423 573.796C338.963 573.018 338.203 572.522 337.141 572.31C336.08 572.063 334.683 571.939 332.949 571.939C332.631 571.939 332.136 571.939 331.464 571.939C330.827 571.903 330.155 571.886 329.447 571.886C328.74 571.85 328.139 571.833 327.643 571.833C327.148 571.797 326.865 571.78 326.794 571.78C325.415 572.735 324.46 573.566 323.929 574.273C323.399 575.016 323.133 575.989 323.133 577.192C323.133 578.677 323.346 579.88 323.77 580.8C324.194 581.72 324.99 582.374 326.158 582.763C327.36 583.152 329.111 583.347 331.411 583.347ZM330.243 561.433C332.826 561.433 334.647 560.955 335.709 560C336.77 559.045 337.3 557.329 337.3 554.853C337.3 552.412 336.77 550.697 335.709 549.706C334.647 548.68 332.826 548.168 330.243 548.168C327.873 548.168 326.158 548.68 325.097 549.706C324.035 550.697 323.505 552.412 323.505 554.853C323.505 557.329 324.035 559.045 325.097 560C326.158 560.955 327.873 561.433 330.243 561.433ZM388.696 573.531C387.033 573.531 385.689 573.265 384.663 572.735C383.673 572.204 382.947 571.267 382.488 569.922C382.028 568.543 381.798 566.58 381.798 564.033V548.751H377.712V546.47H381.798V537.98H384.345V546.47H393.577V548.751H384.345V562.229C384.345 564.634 384.433 566.491 384.61 567.8C384.822 569.074 385.247 569.958 385.883 570.453C386.556 570.948 387.546 571.196 388.855 571.196C389.209 571.196 389.686 571.178 390.287 571.143C390.889 571.108 391.508 571.054 392.145 570.984C392.817 570.913 393.4 570.86 393.896 570.825L394.108 573.053C393.33 573.159 392.41 573.265 391.349 573.371C390.287 573.478 389.403 573.531 388.696 573.531ZM408.685 573V534.478H411.232V548.008C412.222 547.549 413.549 547.106 415.211 546.682C416.909 546.222 418.537 545.992 420.093 545.992C422.534 545.992 424.373 546.399 425.611 547.212C426.885 547.991 427.752 549.335 428.211 551.245C428.671 553.155 428.901 555.773 428.901 559.098V573H426.301V559.257C426.301 556.463 426.142 554.27 425.824 552.678C425.541 551.086 424.939 549.972 424.02 549.335C423.135 548.663 421.756 548.327 419.881 548.327C418.254 548.327 416.644 548.557 415.052 549.017C413.46 549.441 412.187 549.848 411.232 550.237V573H408.685ZM455.924 573.478C453.306 573.478 451.254 572.947 449.769 571.886C448.283 570.825 447.239 569.268 446.638 567.216C446.037 565.165 445.736 562.689 445.736 559.788C445.736 556.321 446.213 553.597 447.169 551.617C448.124 549.6 449.397 548.168 450.989 547.319C452.616 546.434 454.491 545.992 456.613 545.992C459.938 545.992 462.468 546.965 464.201 548.91C465.97 550.856 466.854 554.093 466.854 558.621L466.801 560.796H448.389C448.424 564.157 448.99 566.739 450.087 568.543C451.183 570.312 453.182 571.196 456.083 571.196C457.038 571.196 458.099 571.178 459.266 571.143C460.434 571.072 461.601 571.001 462.768 570.931C463.936 570.86 464.944 570.789 465.793 570.718L465.899 572.894C465.05 572.965 464.024 573.053 462.821 573.159C461.654 573.265 460.451 573.336 459.213 573.371C458.011 573.442 456.914 573.478 455.924 573.478ZM448.389 558.567H464.201C464.201 554.747 463.582 552.076 462.344 550.555C461.141 548.999 459.231 548.221 456.613 548.221C454.066 548.221 452.05 549.017 450.564 550.608C449.114 552.165 448.389 554.818 448.389 558.567ZM506.048 573V536.017H528.015V538.457H508.701V552.943H524.831V555.331H508.701V570.559H528.015V573H506.048ZM544.769 573V546.47H547.316V548.486C547.988 548.132 548.802 547.761 549.757 547.372C550.747 546.983 551.809 546.664 552.941 546.417C554.073 546.134 555.169 545.992 556.23 545.992C558.636 545.992 560.475 546.399 561.749 547.212C563.022 547.991 563.889 549.335 564.349 551.245C564.808 553.155 565.038 555.773 565.038 559.098V573H562.438V559.257C562.438 556.463 562.279 554.27 561.961 552.678C561.678 551.086 561.077 549.972 560.157 549.335C559.272 548.663 557.893 548.327 556.018 548.327C554.957 548.327 553.86 548.451 552.728 548.698C551.632 548.946 550.606 549.264 549.651 549.653C548.731 550.007 547.953 550.361 547.316 550.714V573H544.769ZM588.4 573L580.441 546.47H583.306L590.363 570.718H592.591L599.808 546.47H602.514L594.555 573H588.4ZM618.2 573V546.47H620.747V573H618.2ZM618.2 539.359V535.857H620.747V539.359H618.2ZM639.008 573V546.47H641.555V550.449C642.227 549.919 643.094 549.353 644.155 548.751C645.251 548.15 646.454 547.584 647.763 547.053C649.107 546.523 650.451 546.151 651.796 545.939V548.539C650.558 548.787 649.284 549.158 647.975 549.653C646.666 550.149 645.446 550.679 644.314 551.245C643.217 551.811 642.298 552.306 641.555 552.731V573H639.008ZM676.68 573.478C673.78 573.478 671.533 573.018 669.942 572.098C668.35 571.178 667.253 569.675 666.652 567.588C666.05 565.501 665.75 562.742 665.75 559.31C665.75 556.091 666.103 553.509 666.811 551.563C667.518 549.618 668.668 548.203 670.26 547.319C671.887 546.434 674.027 545.992 676.68 545.992C679.369 545.992 681.509 546.434 683.101 547.319C684.728 548.203 685.895 549.618 686.603 551.563C687.31 553.509 687.664 556.091 687.664 559.31C687.664 562.742 687.363 565.501 686.762 567.588C686.16 569.675 685.064 571.178 683.472 572.098C681.916 573.018 679.652 573.478 676.68 573.478ZM676.68 571.196C679.121 571.196 680.925 570.807 682.092 570.029C683.295 569.25 684.073 567.995 684.427 566.261C684.781 564.493 684.958 562.176 684.958 559.31C684.958 556.516 684.71 554.323 684.215 552.731C683.72 551.104 682.871 549.954 681.668 549.282C680.501 548.61 678.838 548.274 676.68 548.274C674.558 548.274 672.895 548.61 671.693 549.282C670.49 549.954 669.641 551.104 669.146 552.731C668.65 554.323 668.403 556.516 668.403 559.31C668.403 562.176 668.58 564.493 668.933 566.261C669.322 567.995 670.101 569.25 671.268 570.029C672.435 570.807 674.239 571.196 676.68 571.196ZM704.874 573V546.47H707.421V548.486C708.093 548.132 708.906 547.761 709.861 547.372C710.852 546.983 711.913 546.664 713.045 546.417C714.177 546.134 715.274 545.992 716.335 545.992C718.74 545.992 720.58 546.399 721.853 547.212C723.127 547.991 723.993 549.335 724.453 551.245C724.913 553.155 725.143 555.773 725.143 559.098V573H722.543V559.257C722.543 556.463 722.384 554.27 722.065 552.678C721.782 551.086 721.181 549.972 720.261 549.335C719.377 548.663 717.997 548.327 716.123 548.327C715.061 548.327 713.965 548.451 712.833 548.698C711.736 548.946 710.71 549.264 709.755 549.653C708.836 550.007 708.057 550.361 707.421 550.714V573H704.874ZM743.092 573V546.47H745.639V548.486C746.523 547.955 747.744 547.407 749.3 546.841C750.892 546.275 752.466 545.992 754.023 545.992C755.933 545.992 757.418 546.204 758.48 546.629C759.541 547.053 760.39 547.778 761.027 548.804C761.734 548.38 762.601 547.955 763.627 547.531C764.652 547.071 765.784 546.7 767.022 546.417C768.261 546.134 769.481 545.992 770.684 545.992C773.089 545.992 774.928 546.399 776.202 547.212C777.475 547.991 778.342 549.335 778.802 551.245C779.262 553.155 779.492 555.773 779.492 559.098V573H776.945V559.257C776.945 556.463 776.786 554.27 776.467 552.678C776.149 551.086 775.53 549.972 774.61 549.335C773.726 548.663 772.346 548.327 770.471 548.327C768.773 548.327 767.129 548.592 765.537 549.123C763.945 549.653 762.742 550.184 761.929 550.714C762.282 551.67 762.512 552.872 762.618 554.323C762.724 555.773 762.778 557.4 762.778 559.204V573H760.231V559.31C760.231 556.48 760.071 554.27 759.753 552.678C759.47 551.086 758.869 549.972 757.949 549.335C757.029 548.663 755.65 548.327 753.81 548.327C752.183 548.327 750.609 548.592 749.088 549.123C747.602 549.653 746.453 550.184 745.639 550.714V573H743.092ZM806.497 573.478C803.88 573.478 801.828 572.947 800.342 571.886C798.857 570.825 797.813 569.268 797.212 567.216C796.61 565.165 796.31 562.689 796.31 559.788C796.31 556.321 796.787 553.597 797.742 551.617C798.698 549.6 799.971 548.168 801.563 547.319C803.19 546.434 805.065 545.992 807.187 545.992C810.512 545.992 813.042 546.965 814.775 548.91C816.544 550.856 817.428 554.093 817.428 558.621L817.375 560.796H798.963C798.998 564.157 799.564 566.739 800.661 568.543C801.757 570.312 803.756 571.196 806.657 571.196C807.612 571.196 808.673 571.178 809.84 571.143C811.008 571.072 812.175 571.001 813.342 570.931C814.51 570.86 815.518 570.789 816.367 570.718L816.473 572.894C815.624 572.965 814.598 573.053 813.395 573.159C812.228 573.265 811.025 573.336 809.787 573.371C808.585 573.442 807.488 573.478 806.497 573.478ZM798.963 558.567H814.775C814.775 554.747 814.156 552.076 812.918 550.555C811.715 548.999 809.805 548.221 807.187 548.221C804.64 548.221 802.624 549.017 801.138 550.608C799.688 552.165 798.963 554.818 798.963 558.567ZM834.245 573V546.47H836.791V548.486C837.464 548.132 838.277 547.761 839.232 547.372C840.223 546.983 841.284 546.664 842.416 546.417C843.548 546.134 844.644 545.992 845.706 545.992C848.111 545.992 849.951 546.399 851.224 547.212C852.497 547.991 853.364 549.335 853.824 551.245C854.284 553.155 854.514 555.773 854.514 559.098V573H851.914V559.257C851.914 556.463 851.755 554.27 851.436 552.678C851.153 551.086 850.552 549.972 849.632 549.335C848.748 548.663 847.368 548.327 845.493 548.327C844.432 548.327 843.336 548.451 842.204 548.698C841.107 548.946 840.081 549.264 839.126 549.653C838.206 550.007 837.428 550.361 836.791 550.714V573H834.245ZM880.846 573.531C879.184 573.531 877.84 573.265 876.814 572.735C875.823 572.204 875.098 571.267 874.638 569.922C874.178 568.543 873.949 566.58 873.949 564.033V548.751H869.863V546.47H873.949V537.98H876.495V546.47H885.728V548.751H876.495V562.229C876.495 564.634 876.584 566.491 876.761 567.8C876.973 569.074 877.397 569.958 878.034 570.453C878.706 570.948 879.697 571.196 881.006 571.196C881.359 571.196 881.837 571.178 882.438 571.143C883.04 571.108 883.659 571.054 884.295 570.984C884.967 570.913 885.551 570.86 886.046 570.825L886.259 573.053C885.48 573.159 884.561 573.265 883.499 573.371C882.438 573.478 881.554 573.531 880.846 573.531ZM932.445 573.478C929.545 573.478 927.299 573.018 925.707 572.098C924.115 571.178 923.018 569.675 922.417 567.588C921.816 565.501 921.515 562.742 921.515 559.31C921.515 556.091 921.869 553.509 922.576 551.563C923.284 549.618 924.433 548.203 926.025 547.319C927.652 546.434 929.792 545.992 932.445 545.992C935.134 545.992 937.274 546.434 938.866 547.319C940.493 548.203 941.66 549.618 942.368 551.563C943.075 553.509 943.429 556.091 943.429 559.31C943.429 562.742 943.128 565.501 942.527 567.588C941.926 569.675 940.829 571.178 939.237 572.098C937.681 573.018 935.417 573.478 932.445 573.478ZM932.445 571.196C934.886 571.196 936.69 570.807 937.858 570.029C939.06 569.25 939.839 567.995 940.192 566.261C940.546 564.493 940.723 562.176 940.723 559.31C940.723 556.516 940.475 554.323 939.98 552.731C939.485 551.104 938.636 549.954 937.433 549.282C936.266 548.61 934.603 548.274 932.445 548.274C930.323 548.274 928.66 548.61 927.458 549.282C926.255 549.954 925.406 551.104 924.911 552.731C924.416 554.323 924.168 556.516 924.168 559.31C924.168 562.176 924.345 564.493 924.699 566.261C925.088 567.995 925.866 569.25 927.033 570.029C928.201 570.807 930.005 571.196 932.445 571.196ZM961.647 573V548.751H958.092V546.47H961.647V543.498C961.647 540.951 961.877 538.988 962.337 537.608C962.797 536.229 963.54 535.292 964.565 534.796C965.591 534.266 966.918 534 968.545 534C968.899 534 969.376 534.018 969.978 534.053C970.614 534.053 971.269 534.071 971.941 534.106C972.613 534.142 973.161 534.177 973.586 534.213V536.441C972.878 536.406 972.029 536.388 971.039 536.388C970.084 536.353 969.341 536.335 968.81 536.335C967.678 536.335 966.776 536.53 966.104 536.919C965.432 537.308 964.955 538.033 964.672 539.094C964.389 540.12 964.247 541.606 964.247 543.551V546.47H972.525V548.751H964.247V573H961.647ZM1010.04 573V536.017H1031.58V538.457H1012.69V554.376H1028.88V556.763H1012.69V573H1010.04ZM1047.31 573V546.47H1049.86V573H1047.31ZM1047.31 539.359V535.857H1049.86V539.359H1047.31ZM1077.78 585.628C1074.88 585.628 1072.65 585.363 1071.09 584.833C1069.54 584.337 1068.46 583.471 1067.85 582.233C1067.25 581.03 1066.95 579.403 1066.95 577.351C1066.95 576.219 1067.13 575.282 1067.48 574.539C1067.84 573.796 1068.33 573.124 1068.97 572.522C1069.64 571.921 1070.44 571.284 1071.36 570.612C1070.93 570.294 1070.61 569.834 1070.4 569.233C1070.19 568.596 1070.08 567.871 1070.08 567.057C1070.08 566.739 1070.26 566.155 1070.61 565.306C1071 564.422 1071.39 563.626 1071.78 562.918C1070.97 562.6 1070.22 562.14 1069.55 561.539C1068.92 560.938 1068.39 560.106 1067.96 559.045C1067.54 557.948 1067.32 556.551 1067.32 554.853C1067.32 551.67 1068.16 549.388 1069.82 548.008C1071.52 546.629 1073.8 545.939 1076.66 545.939C1077.69 545.939 1078.73 546.01 1079.79 546.151C1080.85 546.293 1081.69 546.452 1082.29 546.629L1089.82 546.47V548.857L1084.36 548.804C1084.96 549.37 1085.44 550.113 1085.79 551.033C1086.18 551.917 1086.37 553.191 1086.37 554.853C1086.37 557.082 1086 558.833 1085.26 560.106C1084.52 561.38 1083.42 562.299 1081.97 562.865C1080.52 563.396 1078.7 563.661 1076.5 563.661C1076.26 563.661 1075.8 563.644 1075.12 563.608C1074.49 563.538 1074.01 563.484 1073.69 563.449C1073.48 564.05 1073.23 564.723 1072.95 565.465C1072.7 566.208 1072.58 566.703 1072.58 566.951C1072.58 567.729 1072.7 568.313 1072.95 568.702C1073.2 569.091 1073.82 569.356 1074.81 569.498C1075.8 569.604 1077.39 569.657 1079.58 569.657C1081.88 569.657 1083.74 569.852 1085.15 570.241C1086.57 570.595 1087.59 571.32 1088.23 572.416C1088.9 573.513 1089.24 575.158 1089.24 577.351C1089.24 580.252 1088.3 582.356 1086.43 583.665C1084.55 584.974 1081.67 585.628 1077.78 585.628ZM1077.83 583.347C1080.91 583.347 1083.14 582.869 1084.52 581.914C1085.9 580.994 1086.59 579.491 1086.59 577.404C1086.59 575.777 1086.34 574.574 1085.84 573.796C1085.38 573.018 1084.62 572.522 1083.56 572.31C1082.5 572.063 1081.1 571.939 1079.37 571.939C1079.05 571.939 1078.56 571.939 1077.88 571.939C1077.25 571.903 1076.57 571.886 1075.87 571.886C1075.16 571.85 1074.56 571.833 1074.06 571.833C1073.57 571.797 1073.28 571.78 1073.21 571.78C1071.83 572.735 1070.88 573.566 1070.35 574.273C1069.82 575.016 1069.55 575.989 1069.55 577.192C1069.55 578.677 1069.76 579.88 1070.19 580.8C1070.61 581.72 1071.41 582.374 1072.58 582.763C1073.78 583.152 1075.53 583.347 1077.83 583.347ZM1076.66 561.433C1079.25 561.433 1081.07 560.955 1082.13 560C1083.19 559.045 1083.72 557.329 1083.72 554.853C1083.72 552.412 1083.19 550.697 1082.13 549.706C1081.07 548.68 1079.25 548.168 1076.66 548.168C1074.29 548.168 1072.58 548.68 1071.52 549.706C1070.45 550.697 1069.92 552.412 1069.92 554.853C1069.92 557.329 1070.45 559.045 1071.52 560C1072.58 560.955 1074.29 561.433 1076.66 561.433ZM1104.99 573V546.47H1107.54V548.486C1108.42 547.955 1109.64 547.407 1111.2 546.841C1112.79 546.275 1114.37 545.992 1115.92 545.992C1117.83 545.992 1119.32 546.204 1120.38 546.629C1121.44 547.053 1122.29 547.778 1122.93 548.804C1123.63 548.38 1124.5 547.955 1125.53 547.531C1126.55 547.071 1127.68 546.7 1128.92 546.417C1130.16 546.134 1131.38 545.992 1132.58 545.992C1134.99 545.992 1136.83 546.399 1138.1 547.212C1139.37 547.991 1140.24 549.335 1140.7 551.245C1141.16 553.155 1141.39 555.773 1141.39 559.098V573H1138.84V559.257C1138.84 556.463 1138.68 554.27 1138.37 552.678C1138.05 551.086 1137.43 549.972 1136.51 549.335C1135.62 548.663 1134.25 548.327 1132.37 548.327C1130.67 548.327 1129.03 548.592 1127.44 549.123C1125.84 549.653 1124.64 550.184 1123.83 550.714C1124.18 551.67 1124.41 552.872 1124.52 554.323C1124.62 555.773 1124.68 557.4 1124.68 559.204V573H1122.13V559.31C1122.13 556.48 1121.97 554.27 1121.65 552.678C1121.37 551.086 1120.77 549.972 1119.85 549.335C1118.93 548.663 1117.55 548.327 1115.71 548.327C1114.08 548.327 1112.51 548.592 1110.99 549.123C1109.5 549.653 1108.35 550.184 1107.54 550.714V573H1104.99ZM1164.84 573.478C1162.58 573.478 1160.81 572.823 1159.54 571.514C1158.3 570.205 1157.68 568.242 1157.68 565.625C1157.68 564.033 1157.94 562.706 1158.47 561.645C1159 560.584 1159.84 559.753 1160.97 559.151C1162.1 558.514 1163.55 558.108 1165.32 557.931L1174.76 556.923V554.323C1174.76 552.2 1174.3 550.679 1173.38 549.759C1172.46 548.804 1171.09 548.327 1169.25 548.327C1168.33 548.327 1167.25 548.38 1166.01 548.486C1164.81 548.592 1163.6 548.716 1162.4 548.857C1161.2 548.963 1160.14 549.07 1159.22 549.176L1159.06 547C1159.91 546.859 1160.93 546.717 1162.14 546.576C1163.34 546.399 1164.58 546.257 1165.85 546.151C1167.12 546.045 1168.29 545.992 1169.35 545.992C1171.23 545.992 1172.75 546.31 1173.91 546.947C1175.08 547.549 1175.95 548.468 1176.51 549.706C1177.08 550.909 1177.36 552.448 1177.36 554.323V569.02C1177.43 569.799 1177.84 570.365 1178.58 570.718C1179.33 571.037 1180.14 571.231 1181.03 571.302L1180.92 573.478C1180.25 573.478 1179.61 573.424 1179.01 573.318C1178.44 573.248 1177.89 573.106 1177.36 572.894C1176.94 572.717 1176.53 572.505 1176.14 572.257C1175.79 571.974 1175.45 571.656 1175.14 571.302C1174.39 571.585 1173.46 571.903 1172.32 572.257C1171.19 572.611 1169.97 572.894 1168.66 573.106C1167.35 573.354 1166.08 573.478 1164.84 573.478ZM1165.05 571.249C1166.22 571.249 1167.41 571.143 1168.61 570.931C1169.81 570.718 1170.96 570.453 1172.06 570.135C1173.15 569.816 1174.06 569.516 1174.76 569.233V559.098L1165.58 560C1163.67 560.177 1162.33 560.725 1161.55 561.645C1160.77 562.565 1160.38 563.874 1160.38 565.571C1160.38 567.376 1160.77 568.773 1161.55 569.763C1162.37 570.754 1163.53 571.249 1165.05 571.249Z" fill="#7A7A7A"/>
</g>
<defs>
<filter id="filter0_d_306_4312" x="441.489" y="311.565" width="384.589" height="163.646" filterUnits="userSpaceOnUse" color-interpolation-filters="sRGB">
<feFlood flood-opacity="0" result="BackgroundImageFix"/>
<feColorMatrix in="SourceAlpha" type="matrix" values="0 0 0 0 0 0 0 0 0 0 0 0 0 0 0 0 0 0 127 0" result="hardAlpha"/>
<feOffset dy="4"/>
<feGaussianBlur stdDeviation="10"/>
<feComposite in2="hardAlpha" operator="out"/>
<feColorMatrix type="matrix" values="0 0 0 0 0 0 0 0 0 0 0 0 0 0 0 0 0 0 0.57 0"/>
<feBlend mode="normal" in2="BackgroundImageFix" result="effect1_dropShadow_306_4312"/>
<feBlend mode="normal" in="SourceGraphic" in2="effect1_dropShadow_306_4312" result="shape"/>
</filter>
<filter id="filter1_d_306_4312" x="774.873" y="337.137" width="55.5176" height="55.5175" filterUnits="userSpaceOnUse" color-interpolation-filters="sRGB">
<feFlood flood-opacity="0" result="BackgroundImageFix"/>
<feColorMatrix in="SourceAlpha" type="matrix" values="0 0 0 0 0 0 0 0 0 0 0 0 0 0 0 0 0 0 127 0" result="hardAlpha"/>
<feOffset/>
<feGaussianBlur stdDeviation="4.78595"/>
<feComposite in2="hardAlpha" operator="out"/>
<feColorMatrix type="matrix" values="0 0 0 0 0 0 0 0 0 0 0 0 0 0 0 0 0 0 0.83 0"/>
<feBlend mode="normal" in2="BackgroundImageFix" result="effect1_dropShadow_306_4312"/>
<feBlend mode="normal" in="SourceGraphic" in2="effect1_dropShadow_306_4312" result="shape"/>
</filter>
<clipPath id="clip0_306_4312">
<rect width="1280" height="640" rx="56" fill="white"/>
</clipPath>
<clipPath id="clip1_306_4312">
<rect width="87.5652" height="131.348" fill="white" transform="translate(597.261 187)"/>
</clipPath>
</defs>
</svg>
